<?xml version="1.0" standalone="no"?><!DOCTYPE svg PUBLIC "-//W3C//DTD SVG 1.1//EN" "http://www.w3.org/Graphics/SVG/1.1/DTD/svg11.dtd"><svg t="1778993965041" class="icon" viewBox="0 0 1024 1024" version="1.1" xmlns="http://www.w3.org/2000/svg" p-id="10437" xmlns:xlink="http://www.w3.org/1999/xlink" width="200" height="200"><path d="M682.496 256H384a128 128 0 0 0-128 128v298.496c-55.381333-2.730667-85.333333-35.2-85.333333-92.928V263.765333C170.666667 203.434667 203.434667 170.666667 263.765333 170.666667h325.802667c57.728 0 90.197333 29.952 92.928 85.333333z" fill="#d0d0e0" opacity=".3" p-id="10438"></path><path d="M434.432 341.333333h325.802667C820.565333 341.333333 853.333333 374.101333 853.333333 434.432v325.802667C853.333333 820.565333 820.565333 853.333333 760.234667 853.333333h-325.802667C374.101333 853.333333 341.333333 820.565333 341.333333 760.234667v-325.802667C341.333333 374.101333 374.101333 341.333333 434.432 341.333333z" fill="#d0d0e0" p-id="10439"></path></svg>