<?xml version="1.0" standalone="no"?><!DOCTYPE svg PUBLIC "-//W3C//DTD SVG 1.1//EN" "http://www.w3.org/Graphics/SVG/1.1/DTD/svg11.dtd"><svg t="1778994264285" class="icon" viewBox="0 0 1024 1024" version="1.1" xmlns="http://www.w3.org/2000/svg" p-id="14516" xmlns:xlink="http://www.w3.org/1999/xlink" width="200" height="200"><path fill="#d0d0e0" d="M779.849143 277.577143V116.004571c0-24.009143-19.712-39.862857-42.843429-34.724571L509.421714 130.578286c-29.129143 6.418286-44.982857 21.851429-44.982857 47.561143l2.56 476.580571c0 19.712-8.996571 32.548571-26.569143 35.986286l-68.150857 14.573714c-87.405714 18.011429-128.128 63.012571-128.128 128.585143 0 66.852571 51.84 113.993143 124.269714 113.993143 63.451429 0 159.451429-47.579429 159.451429-173.568V382.134857c0-21.412571 3.419429-25.270857 22.692571-29.129143l204.013715-45.001143c15.414857-3.437714 25.270857-15.433143 25.270857-30.427428z" p-id="14517"></path></svg>