<?xml version="1.0" standalone="no"?><!DOCTYPE svg PUBLIC "-//W3C//DTD SVG 1.1//EN" "http://www.w3.org/Graphics/SVG/1.1/DTD/svg11.dtd"><svg t="1778993596500" class="icon" viewBox="0 0 1024 1024" version="1.1" xmlns="http://www.w3.org/2000/svg" p-id="4567" xmlns:xlink="http://www.w3.org/1999/xlink" width="200" height="200"><path d="M959.266 879.165c0 81.582-81.582 81.582-81.582 81.582l-233.38-233.381c-60.529 43.977-134.777 70.217-215.318 70.217-202.755 0-367.117-164.362-367.117-367.117S226.23 63.349 428.985 63.349s367.117 164.362 367.117 367.117c0 80.541-26.241 154.785-70.217 215.318l233.381 233.381zM428.985 144.931c-157.697 0-285.536 127.838-285.536 285.536s127.838 285.536 285.536 285.536 285.536-127.838 285.536-285.536-127.839-285.536-285.536-285.536z" fill="#d0d0e0" p-id="4568"></path></svg>