<?xml version="1.0" standalone="no"?><!DOCTYPE svg PUBLIC "-//W3C//DTD SVG 1.1//EN" "http://www.w3.org/Graphics/SVG/1.1/DTD/svg11.dtd"><svg t="1778678697533" class="icon" viewBox="0 0 1024 1024" version="1.1" xmlns="http://www.w3.org/2000/svg" p-id="7455" xmlns:xlink="http://www.w3.org/1999/xlink" width="200" height="200"><path d="M790.010979 456.613109a43.350032 43.350032 0 0 0-43.350032 43.350032v233.237621H303.753672l108.66408-108.656855a43.350032 43.350032 0 0 0-61.30417-61.311394l-183.789684 183.782459c-9.103507 9.103507-13.142285 21.241516-12.45591 33.155549-0.686376 11.914034 3.352402 24.052043 12.45591 33.15555l183.789684 183.775234c8.467706 8.460481 19.558089 12.694334 30.655698 12.694335s22.187991-4.233853 30.655697-12.70156a43.350032 43.350032 0 0 0 0-61.30417L296.528667 819.893601h493.482312a43.350032 43.350032 0 0 0 43.350031-43.350032c0-0.310675-0.036125-0.6069-0.04335-0.910351 0.007225-0.30345 0.04335-0.6069 0.04335-0.910351V499.963141a43.350032 43.350032 0 0 0-43.350031-43.350032z" fill="#d0d0e0" p-id="7456"></path><path d="M560.277485 640.352219v-238.425175a43.350032 43.350032 0 0 0-86.700063 0v238.425175a43.350032 43.350032 0 0 0 86.700063 0z" fill="#d0d0e0" p-id="7457"></path><path d="M856.791703 212.364581L673.002018 28.589346a43.350032 43.350032 0 1 0-61.296945 61.30417l115.889085 115.889085H234.097396a43.350032 43.350032 0 0 0-43.350031 43.350031c0 0.310675 0.036125 0.6069 0.04335 0.910351-0.007225 0.30345-0.04335 0.6069-0.04335 0.910351v274.759726a43.350032 43.350032 0 0 0 86.700063 0V292.482664h442.921725l-108.66408 108.656855a43.342807 43.342807 0 1 0 61.296945 61.30417l183.789685-183.775235c9.103507-9.103507 13.14951-21.234291 12.463134-33.148324 0.67915-11.914034-3.359627-24.052043-12.463134-33.155549z" fill="#d0d0e0" p-id="7458"></path></svg>

